<svg width="96" height="96" viewBox="0 0 96 96" fill="none" xmlns="http://www.w3.org/2000/svg">
<circle cx="48" cy="48" r="48" fill="#086C9E"/>
<path d="M48 7C55.3358 7 62.5372 8.96818 68.8533 12.6993C75.1694 16.4304 80.3687 21.7878 83.9091 28.2127C87.4495 34.6376 89.2012 41.8947 88.9816 49.2273C88.762 56.5598 86.5792 63.6991 82.6607 69.9006L48 48V7Z" fill="#12AEC7"/>
<path d="M83.8363 67.9188C80.3225 74.2406 75.1989 79.5204 68.9854 83.2224C62.7719 86.9243 55.6897 88.9168 48.4574 88.9975C41.2251 89.0781 34.1002 87.2442 27.8057 83.6818C21.5111 80.1193 16.271 74.9552 12.617 68.7133C8.96299 62.4715 7.0252 55.3741 7.00024 48.1415C6.97529 40.9088 8.86406 33.7982 12.4749 27.5313C16.0857 21.2644 21.2901 16.0642 27.5599 12.4584C33.8297 8.85264 40.9418 6.96959 48.1745 7.00037L48 48L83.8363 67.9188Z" fill="white"/>
<circle cx="48" cy="48" r="35" fill="#086C9E"/>
<path d="M34.1479 46.482C34.1946 45.5487 34.5213 44.83 35.1279 44.326C35.7439 43.8127 36.5513 43.556 37.5499 43.556C38.2313 43.556 38.8146 43.6773 39.2999 43.92C39.7853 44.1533 40.1493 44.4753 40.3919 44.886C40.6439 45.2873 40.7699 45.7447 40.7699 46.258C40.7699 46.846 40.6159 47.3453 40.3079 47.756C40.0093 48.1573 39.6499 48.428 39.2299 48.568V48.624C39.7713 48.792 40.1913 49.0907 40.4899 49.52C40.7979 49.9493 40.9519 50.5 40.9519 51.172C40.9519 51.732 40.8213 52.2313 40.5599 52.67C40.3079 53.1087 39.9299 53.454 39.4259 53.706C38.9313 53.9487 38.3339 54.07 37.6339 54.07C36.5793 54.07 35.7206 53.804 35.0579 53.272C34.3953 52.74 34.0453 51.956 34.0079 50.92H35.9119C35.9306 51.3773 36.0846 51.746 36.3739 52.026C36.6726 52.2967 37.0786 52.432 37.5919 52.432C38.0679 52.432 38.4319 52.3013 38.6839 52.04C38.9453 51.7693 39.0759 51.424 39.0759 51.004C39.0759 50.444 38.8986 50.0427 38.5439 49.8C38.1893 49.5573 37.6386 49.436 36.8919 49.436H36.4859V47.826H36.8919C38.2173 47.826 38.8799 47.3827 38.8799 46.496C38.8799 46.0947 38.7586 45.782 38.5159 45.558C38.2826 45.334 37.9419 45.222 37.4939 45.222C37.0553 45.222 36.7146 45.3433 36.4719 45.586C36.2386 45.8193 36.1033 46.118 36.0659 46.482H34.1479ZM42.4168 52.012V50.472L46.9948 43.92H49.2768V50.304H50.5088V52.012H49.2768V54H47.3168V52.012H42.4168ZM47.4428 46.02L44.5728 50.304H47.4428V46.02ZM51.5326 46.3C51.5326 45.5907 51.738 45.0353 52.1486 44.634C52.5686 44.2327 53.1053 44.032 53.7586 44.032C54.412 44.032 54.944 44.2327 55.3546 44.634C55.7746 45.0353 55.9846 45.5907 55.9846 46.3C55.9846 47.0187 55.7746 47.5787 55.3546 47.98C54.944 48.3813 54.412 48.582 53.7586 48.582C53.1053 48.582 52.5686 48.3813 52.1486 47.98C51.738 47.5787 51.5326 47.0187 51.5326 46.3ZM60.5206 44.2L55.0186 54H53.1146L58.6026 44.2H60.5206ZM53.7446 45.208C53.2313 45.208 52.9746 45.572 52.9746 46.3C52.9746 47.0373 53.2313 47.406 53.7446 47.406C53.9966 47.406 54.1926 47.3173 54.3326 47.14C54.4726 46.9533 54.5426 46.6733 54.5426 46.3C54.5426 45.572 54.2766 45.208 53.7446 45.208ZM57.6786 51.886C57.6786 51.1673 57.884 50.612 58.2946 50.22C58.7146 49.8187 59.2513 49.618 59.9046 49.618C60.558 49.618 61.0853 49.8187 61.4866 50.22C61.8973 50.612 62.1026 51.1673 62.1026 51.886C62.1026 52.6047 61.8973 53.1647 61.4866 53.566C61.0853 53.9673 60.558 54.168 59.9046 54.168C59.242 54.168 58.7053 53.9673 58.2946 53.566C57.884 53.1647 57.6786 52.6047 57.6786 51.886ZM59.8906 50.794C59.3586 50.794 59.0926 51.158 59.0926 51.886C59.0926 52.6233 59.3586 52.992 59.8906 52.992C60.4133 52.992 60.6746 52.6233 60.6746 51.886C60.6746 51.158 60.4133 50.794 59.8906 50.794Z" fill="white"/>
</svg>
