<svg width="26" height="31" viewBox="0 0 26 31" fill="none" xmlns="http://www.w3.org/2000/svg">
<path d="M7.40756 5.76868H4.36701C3.02361 5.76868 1.93457 6.90012 1.93457 8.29583V25.9859C1.93457 27.3817 3.02361 28.5131 4.36701 28.5131H11.6643" stroke="#12AEC7" stroke-width="3" stroke-linecap="round"/>
<path d="M15.9209 5.76855H18.9614C20.3049 5.76855 21.3939 6.9 21.3939 8.29571V19.6679" stroke="#12AEC7" stroke-width="3" stroke-linecap="round"/>
<path d="M6.7998 8.80123V6.40043C6.7998 6.05151 7.07207 5.76864 7.40791 5.76864C7.74376 5.76864 8.02116 5.48565 8.07868 5.14188C8.25888 4.06497 8.95737 1.97791 11.6647 1.97791C14.372 1.97791 15.0705 4.06497 15.2507 5.14188C15.3082 5.48565 15.5857 5.76864 15.9215 5.76864C16.2572 5.76864 16.5296 6.05151 16.5296 6.40043V8.80123C16.5296 9.21994 16.2029 9.55938 15.7998 9.55938H7.52954C7.12652 9.55938 6.7998 9.21994 6.7998 8.80123Z" stroke="#12AEC7" stroke-width="3" stroke-linecap="round"/>
<path d="M15.9209 26.6176L18.3533 29.1448L24.4344 22.8269" stroke="#12AEC7" stroke-width="3" stroke-linecap="round" stroke-linejoin="round"/>
</svg>
