<svg width="33" height="29" viewBox="0 0 33 29" fill="none" xmlns="http://www.w3.org/2000/svg">
<path d="M32.9062 9.03125C32.905 7.87132 32.4436 6.75925 31.6234 5.93906C30.8032 5.11886 29.6912 4.65752 28.5312 4.65625H25.25V3.5625C25.2491 2.69254 24.9031 1.85846 24.2879 1.24331C23.6728 0.628148 22.8387 0.282155 21.9688 0.28125H11.0312C10.1613 0.282155 9.32721 0.628148 8.71206 1.24331C8.0969 1.85846 7.75091 2.69254 7.75 3.5625V4.65625H4.46875C3.30882 4.65752 2.19675 5.11886 1.37656 5.93906C0.556359 6.75925 0.0950166 7.87132 0.09375 9.03125V12.3125H32.9062V9.03125ZM23.0625 4.65625H9.9375V3.5625C9.9375 3.27242 10.0527 2.99422 10.2579 2.7891C10.463 2.58398 10.7412 2.46875 11.0312 2.46875H21.9688C22.2588 2.46875 22.537 2.58398 22.7421 2.7891C22.9473 2.99422 23.0625 3.27242 23.0625 3.5625V4.65625ZM21.9688 15.0469C21.9688 15.482 21.7959 15.8993 21.4882 16.207C21.1805 16.5146 20.7632 16.6875 20.3281 16.6875H12.6719C12.2368 16.6875 11.8195 16.5146 11.5118 16.207C11.2041 15.8993 11.0312 15.482 11.0312 15.0469V14.7734C11.0312 14.7009 11.0024 14.6314 10.9512 14.5801C10.8999 14.5288 10.8303 14.5 10.7578 14.5H0.09375V24.3438C0.09375 25.5041 0.554686 26.6169 1.37516 27.4373C2.19563 28.2578 3.30843 28.7188 4.46875 28.7188H28.5312C29.6916 28.7188 30.8044 28.2578 31.6248 27.4373C32.4453 26.6169 32.9062 25.5041 32.9062 24.3438V14.5H22.2422C22.1697 14.5 22.1001 14.5288 22.0488 14.5801C21.9976 14.6314 21.9688 14.7009 21.9688 14.7734V15.0469Z" fill="#12AEC7"/>
</svg>
