<svg width="33" height="25" viewBox="0 0 33 25" fill="none" xmlns="http://www.w3.org/2000/svg">
<path d="M14.311 24.3126C14.311 24.3126 12.2666 24.3126 12.2666 22.2903C12.2666 20.2679 14.311 14.201 22.4887 14.201C30.6664 14.201 32.7109 20.2679 32.7109 22.2903C32.7109 24.3126 30.6664 24.3126 30.6664 24.3126H14.311ZM22.4887 12.1786C24.1154 12.1786 25.6754 11.5394 26.8256 10.4017C27.9758 9.26388 28.622 7.72072 28.622 6.11166C28.622 4.50259 27.9758 2.95943 26.8256 1.82166C25.6754 0.683876 24.1154 0.0446777 22.4887 0.0446777C20.8621 0.0446777 19.302 0.683876 18.1518 1.82166C17.0016 2.95943 16.3554 4.50259 16.3554 6.11166C16.3554 7.72072 17.0016 9.26388 18.1518 10.4017C19.302 11.5394 20.8621 12.1786 22.4887 12.1786ZM10.6637 24.3126C10.3608 23.6812 10.2097 22.9891 10.2221 22.2903C10.2221 19.55 11.6124 16.7289 14.1802 14.7672C12.8987 14.3758 11.5632 14.1847 10.2221 14.201C2.04443 14.201 0 20.2679 0 22.2903C0 24.3126 2.04443 24.3126 2.04443 24.3126H10.6637ZM9.19993 12.1786C10.5555 12.1786 11.8555 11.646 12.814 10.6978C13.7725 9.74967 14.311 8.46371 14.311 7.12282C14.311 5.78194 13.7725 4.49597 12.814 3.54782C11.8555 2.59967 10.5555 2.067 9.19993 2.067C7.84439 2.067 6.54437 2.59967 5.58586 3.54782C4.62734 4.49597 4.08886 5.78194 4.08886 7.12282C4.08886 8.46371 4.62734 9.74967 5.58586 10.6978C6.54437 11.646 7.84439 12.1786 9.19993 12.1786Z" fill="#12AEC7"/>
</svg>
